<svg id="Laag_1" data-name="Laag 1" xmlns="http://www.w3.org/2000/svg" viewBox="0 0 222.12 25.29"><defs><style>.cls-1{fill:#db0812;}.cls-2{fill:#5f5e5e;}</style></defs><title>logo_port_of_amsterdam</title><path class="cls-1" d="M16.84,17.95l4.54,4.54a8.82,8.82,0,0,1,5.06-5.06L21.9,12.89Zm20.9,4.39,4.39-4.39-5.06-5.06-4.48,4.48a8.82,8.82,0,0,1,5.15,5M21.32,28.64l-4.48,4.48,5.06,5.06,4.38-4.39a8.82,8.82,0,0,1-5-5.15m11.42,5.21,4.33,4.33,5.06-5.06L37.8,28.79a8.82,8.82,0,0,1-5.06,5.06" transform="translate(-16.84 -12.89)"/><path class="cls-1" d="M33,25.64a3.39,3.39,0,1,1-3.39-3.39A3.39,3.39,0,0,1,33,25.64" transform="translate(-16.84 -12.89)"/><path class="cls-2" d="M57,14.27h4.9c2.82,0,5.37,1,5.37,4.22,0,3.66-2.74,4.32-5.82,4.32H59.63v6H57V14.27Zm4.16,6.32c1.48,0,3.4-.08,3.4-2.06,0-1.79-1.71-2-3.11-2H59.63v4.1h1.56Z" transform="translate(-16.84 -12.89)"/><path class="cls-2" d="M73.24,18.71a5.19,5.19,0,1,1-5.37,5.19,5.12,5.12,0,0,1,5.37-5.19m0,8.15a3,3,0,1,0-2.9-3,2.86,2.86,0,0,0,2.9,3" transform="translate(-16.84 -12.89)"/><path class="cls-2" d="M80.48,19h2.47v1.56h0a3.15,3.15,0,0,1,2.92-1.81,3.19,3.19,0,0,1,.88.14v2.39a5,5,0,0,0-1.19-.18,2.48,2.48,0,0,0-2.66,2.49v5.29H80.48V19Z" transform="translate(-16.84 -12.89)"/><path class="cls-2" d="M88.3,21.06V19h2V16.1h2.47V19h2.72v2.1H92.81v4.32c0,1,.29,1.6,1.38,1.6a2.58,2.58,0,0,0,1.34-.31v2.08a5.21,5.21,0,0,1-2,.33c-2.61,0-3.23-1.17-3.23-3.5V21.06h-2Z" transform="translate(-16.84 -12.89)"/><path class="cls-2" d="M108.43,18.71a5.19,5.19,0,1,1-5.37,5.19,5.12,5.12,0,0,1,5.37-5.19m0,8.15a3,3,0,1,0-2.9-3,2.86,2.86,0,0,0,2.9,3" transform="translate(-16.84 -12.89)"/><path class="cls-2" d="M116.92,21.06h-2V19h2v-1.4c0-2.74.62-4.53,3.68-4.53a7.89,7.89,0,0,1,1.56.14L122,15.28a4.4,4.4,0,0,0-1-.14c-1.38,0-1.59.95-1.59,2V19h2.29v2.1h-2.29v7.78h-2.47V21.06Z" transform="translate(-16.84 -12.89)"/><path class="cls-2" d="M134.32,14.27h2.24l6.28,14.57h-3l-1.36-3.34H132.2l-1.32,3.34H128Zm3.29,9-2.24-5.93-2.28,5.93h4.53Z" transform="translate(-16.84 -12.89)"/><path class="cls-2" d="M144.31,19h2.35v1.54h0a3.14,3.14,0,0,1,3-1.79,3,3,0,0,1,3.09,1.83,3.44,3.44,0,0,1,3.25-1.83c2.63,0,3.56,1.87,3.56,4.24v5.89h-2.47v-5.6c0-1.24-.37-2.31-1.83-2.31s-2.12,1.28-2.12,2.55v5.35h-2.47V23c0-1.21-.49-2-1.69-2a2.21,2.21,0,0,0-2.26,2.51v5.39h-2.47V19Z" transform="translate(-16.84 -12.89)"/><path class="cls-2" d="M167.73,21.7a2.24,2.24,0,0,0-1.94-1,1.26,1.26,0,0,0-1.44,1c0,1.77,5.33.33,5.33,4.18,0,2.35-2.24,3.17-4.26,3.17a4.83,4.83,0,0,1-3.85-1.52L163.22,26a3,3,0,0,0,2.35,1.21c0.72,0,1.65-.35,1.65-1.13,0-2-5.33-.43-5.33-4.2,0-2.2,2-3.19,4-3.19a4.27,4.27,0,0,1,3.52,1.5Z" transform="translate(-16.84 -12.89)"/><path class="cls-2" d="M170.74,21.06V19h2V16.1h2.47V19H178v2.1h-2.72v4.32c0,1,.29,1.6,1.38,1.6a2.58,2.58,0,0,0,1.34-.31v2.08a5.21,5.21,0,0,1-2,.33c-2.61,0-3.23-1.17-3.23-3.5V21.06h-2Z" transform="translate(-16.84 -12.89)"/><path class="cls-2" d="M181.69,24.77a2.56,2.56,0,0,0,2.65,2.35A3.25,3.25,0,0,0,187,25.77l1.77,1.34a5.28,5.28,0,1,1-4.18-8.4c2.76,0,4.63,1.93,4.63,5.37v0.68h-7.53Zm5.06-1.85a2.27,2.27,0,0,0-2.51-2.35,2.46,2.46,0,0,0-2.55,2.35h5.06Z" transform="translate(-16.84 -12.89)"/><path class="cls-2" d="M191.57,19H194v1.56h0A3.15,3.15,0,0,1,197,18.71a3.19,3.19,0,0,1,.88.14v2.39a4.94,4.94,0,0,0-1.19-.18A2.48,2.48,0,0,0,194,23.55v5.29h-2.47V19Z" transform="translate(-16.84 -12.89)"/><path class="cls-2" d="M207.39,27.36h0a3.81,3.81,0,0,1-3.4,1.73c-3,0-4.88-2.26-4.88-5.19s2-5.19,4.78-5.19a4.06,4.06,0,0,1,3.36,1.5h0.06V13.28h2.47V28.84h-2.35V27.36Zm-2.94-.49a3,3,0,1,0-2.9-3,2.86,2.86,0,0,0,2.9,3" transform="translate(-16.84 -12.89)"/><path class="cls-2" d="M218.74,27.48h-0.06a3.55,3.55,0,0,1-3.17,1.61c-1.83,0-3.6-1-3.6-3,0-3.21,3.75-3.44,6.22-3.44h0.62V22.42c0-1.21-.95-1.85-2.26-1.85a3.88,3.88,0,0,0-2.63,1l-1.3-1.3a5.79,5.79,0,0,1,4.2-1.59c4.22,0,4.22,3,4.22,4.45v5.68h-2.22V27.48Zm-0.14-3.07h-0.51c-1.36,0-3.71.1-3.71,1.52a1.52,1.52,0,0,0,1.73,1.3c1.69,0,2.49-.88,2.49-2.26V24.42Z" transform="translate(-16.84 -12.89)"/><path class="cls-2" d="M223.65,19H226v1.54h0a3.14,3.14,0,0,1,3-1.79,3,3,0,0,1,3.09,1.83,3.44,3.44,0,0,1,3.25-1.83C238,18.71,239,20.59,239,23v5.89H236.5v-5.6c0-1.24-.37-2.31-1.83-2.31s-2.12,1.28-2.12,2.55v5.35h-2.47V23c0-1.21-.49-2-1.69-2a2.21,2.21,0,0,0-2.26,2.51v5.39h-2.47V19Z" transform="translate(-16.84 -12.89)"/></svg>